<svg xmlns="http://www.w3.org/2000/svg" viewBox="0 0 256 256">
  <rect width="256" height="256" fill="#0066CC"/>
  <path d="M128 40 L128 216 M40 128 L216 128" stroke="white" stroke-width="32" stroke-linecap="round"/>
  <path d="M128 90 C115 90 105 95 105 105 L105 125 C105 140 115 150 128 150 C141 150 151 140 151 125 L151 105 C151 95 141 90 128 90 Z M105 125 C100 130 95 132 90 135 C85 138 85 145 90 150 C95 155 105 155 110 150 C115 145 115 135 110 130 Z M151 125 C156 130 161 132 166 135 C171 138 171 145 166 150 C161 155 151 155 146 150 C141 145 141 135 146 130 Z" fill="white"/>
</svg>